# xmcd
#
# Track frame offsets:
#	150
#	12370
#	24797
#	39020
#	50022
#	59170
#	74057
#	88680
#	111907
#	129100
#	154217
#	165447
#	175605
#	188117
#	203012
#	217252
#	229690
#	241942
#
# Disc length: 3360 seconds
#
# Revision: 6
# Processed by: cddbd v1.5.2PL0 Copyright (c) Steve Scherf et al.
# Submitted via: audiograbber 1.83.01
#
DISCID=f00d1e12
DTITLE=Various Artist - World's Greatest Country Novelty Records  [CD1)
DYEAR=2001
DGENRE=Oldies
TTITLE0=Jack Blanchard and Misty Morgan - Tennessee Birdwalk 
TTITLE1=Hank Snow - I've Been Everywhere
TTITLE2=Chet Atkins - Fiddlin' Around  
TTITLE3=Don Bowman - Chit Atkins, Make Me A Star 
TTITLE4=Mac Wiseman - Johnny's Cash And Charlie's Pride 
TTITLE5=Jerry Reed and Friends - The Bird 
TTITLE6=Chet Atkins and Ray Stevens - Frog Kissin' 
TTITLE7=Bobby Bare - Numbers 
TTITLE8=Kenny Price - The Sheriff Of Boone County 
TTITLE9=Ray Stevens - Shriner's Convention 
TTITLE10=Vernon Oxford - Redneck! (The Redneck National Anthem) 
TTITLE11=Zoot Fenster  (Jack Barlow) - The Man On Page 602 
TTITLE12=John D. Loudermilk - Th' Wife 
TTITLE13=Jerry Reed - Lord, Mr. Ford
TTITLE14=Guy Clark - Welfare Cadillac 
TTITLE15=Archie Campbell - That's Good! That's Bad! 
TTITLE16=Phil Harris - That's What I Like About The South 
TTITLE17=Singing Dogs - Oh! Susanna
EXTD=YEAR: 2001
EXTT0=
EXTT1=
EXTT2=
EXTT3=
EXTT4=
EXTT5=
EXTT6=
EXTT7=
EXTT8=
EXTT9=
EXTT10=
EXTT11=
EXTT12=
EXTT13=
EXTT14=
EXTT15=
EXTT16=
EXTT17=
PLAYORDER=
